<svg version="1.0" xmlns="http://www.w3.org/2000/svg"
     width="512.000000pt" height="512.000000pt" viewBox="0 0 512.000000 512.000000"
     preserveAspectRatio="xMidYMid meet">

    <g transform="translate(0.000000,512.000000) scale(0.100000,-0.100000)"
       fill="#000000" stroke="none">
        <path d="M51 4396 c-53 -29 -50 72 -51 -1833 0 -1353 3 -1778 12 -1798 26 -58
-73 -55 1668 -55 1741 0 1642 -3 1668 55 16 34 15 60 -2 94 -26 49 -43 51
-376 51 l-310 0 0 453 0 453 58 12 c230 48 443 225 535 448 40 96 52 162 52
284 0 122 -12 188 -52 284 -92 222 -304 400 -530 447 l-63 13 0 453 0 453
1130 0 1130 0 0 -340 0 -340 -626 0 -626 0 -29 -29 -29 -29 0 -901 c0 -547 4
-910 10 -925 5 -14 21 -33 37 -43 25 -17 69 -18 645 -21 l618 -3 0 -334 0
-335 -390 0 c-418 0 -430 -1 -456 -51 -18 -35 -18 -63 0 -98 26 -50 34 -51
517 -51 488 0 492 0 517 55 9 20 12 445 12 1796 0 1925 3 1811 -55 1837 -40
19 -4980 17 -5014 -2z m2409 -639 l0 -453 -62 -13 c-223 -45 -444 -231 -532
-447 -71 -173 -72 -385 -5 -558 52 -131 176 -279 300 -359 69 -44 164 -83 241
-99 l58 -12 0 -453 0 -453 -1130 0 -1130 0 0 335 0 334 618 3 c576 3 620 4
645 21 16 10 32 30 38 44 6 16 8 362 7 930 l-3 905 -28 24 -28 24 -625 0 -624
0 0 340 0 340 1130 0 1130 0 0 -453z m-1150 -1202 l0 -775 -555 0 -555 0 0
115 0 115 215 0 c235 0 260 5 283 55 17 37 17 953 0 990 -23 50 -48 55 -283
55 l-215 0 0 110 0 110 555 0 555 0 0 -775z m3610 665 l0 -110 -215 0 c-235 0
-260 -5 -283 -55 -17 -37 -17 -953 0 -990 23 -50 48 -55 283 -55 l215 0 0
-115 0 -115 -555 0 -555 0 0 775 0 775 555 0 555 0 0 -110z m-2460 -362 l-1
-243 -201 -115 c-111 -63 -204 -116 -209 -118 -17 -7 -34 79 -34 178 0 83 5
119 23 172 57 164 191 298 350 349 31 10 60 18 65 18 4 1 7 -108 7 -241z m295
215 c143 -50 273 -185 327 -341 18 -53 23 -89 23 -172 0 -99 -17 -185 -34
-178 -5 2 -98 55 -209 118 l-201 115 -1 243 0 242 28 -6 c15 -4 45 -13 67 -21z
m-2245 -513 l0 -350 -155 0 -155 0 0 350 0 350 155 0 155 0 0 -350z m4410 0
l0 -350 -155 0 -155 0 0 350 0 350 155 0 155 0 0 -350z m-2460 -360 l0 -180
-27 6 c-16 4 -52 15 -80 26 -76 28 -218 137 -200 154 10 10 292 174 300 174 4
0 7 -81 7 -180z m361 94 c82 -47 149 -89 149 -94 0 -13 -84 -86 -131 -113 -44
-26 -98 -48 -151 -61 l-28 -6 0 180 c0 99 3 180 6 180 4 0 73 -39 155 -86z"/>
        <path d="M961 2646 c-87 -48 -50 -186 49 -186 51 0 100 49 100 99 0 75 -83
124 -149 87z"/>
        <path d="M4061 2646 c-87 -48 -50 -186 49 -186 51 0 100 49 100 99 0 75 -83
124 -149 87z"/>
        <path d="M3661 896 c-87 -48 -50 -186 49 -186 51 0 100 49 100 99 0 75 -83
124 -149 87z"/>
    </g>
</svg>
