<svg version="1.0" xmlns="http://www.w3.org/2000/svg"
     width="512.000000pt" height="512.000000pt" viewBox="0 0 512.000000 512.000000"
     preserveAspectRatio="xMidYMid meet">

    <g transform="translate(0.000000,512.000000) scale(0.100000,-0.100000)"
       fill="#000000" stroke="none">
        <path d="M2488 5099 c-23 -12 -46 -35 -58 -59 -18 -36 -20 -59 -20 -271 0
-256 5 -280 64 -322 23 -16 45 -22 86 -22 41 0 63 6 86 22 59 42 64 66 64 322
0 213 -2 235 -20 271 -37 73 -127 99 -202 59z"/>
        <path d="M1454 4501 c-94 -43 -114 -174 -38 -243 11 -9 102 -65 204 -124 200
-116 248 -131 306 -101 56 29 77 62 81 125 6 90 -6 103 -224 229 -246 143
-257 147 -329 114z"/>
        <path d="M3556 4508 c-16 -6 -114 -60 -218 -121 -219 -126 -231 -139 -225
-229 4 -63 25 -96 81 -125 58 -30 106 -15 306 101 102 59 193 115 204 124 76
69 56 200 -38 243 -46 21 -68 22 -110 7z"/>
        <path d="M410 3896 c-212 -59 -371 -237 -402 -453 -34 -236 90 -470 302 -572
30 -14 57 -27 59 -28 2 -1 -30 -53 -72 -115 -41 -62 -89 -141 -106 -175 -247
-492 -252 -1073 -13 -1560 200 -408 552 -728 975 -884 198 -73 375 -103 607
-102 264 0 467 41 700 142 425 185 783 562 940 992 69 190 99 342 109 549 l6
135 726 91 c399 50 741 94 760 98 41 8 81 40 103 83 14 28 16 101 16 665 0
706 3 677 -69 725 l-34 23 -1699 0 c-1451 0 -1713 -2 -1797 -15 -129 -19 -249
-47 -337 -79 -39 -14 -74 -26 -78 -26 -3 0 -6 12 -6 28 0 15 -7 51 -15 81 -48
183 -204 342 -384 395 -65 19 -225 20 -291 2z m245 -305 c45 -20 99 -72 122
-116 9 -16 18 -60 21 -97 4 -59 1 -75 -23 -123 -75 -154 -277 -189 -399 -69
-16 16 -40 53 -54 83 -43 94 -17 209 64 281 21 18 51 38 68 46 46 20 153 17
201 -5z m1757 -490 c3 -118 12 -141 72 -185 38 -29 114 -29 152 0 60 44 69 67
72 185 l4 109 1054 0 1054 0 0 -460 c0 -253 -2 -460 -5 -460 -29 0 -1461 -183
-1496 -191 -49 -11 -91 -46 -107 -89 -5 -14 -7 -101 -4 -195 3 -128 0 -195
-12 -272 -53 -333 -198 -609 -439 -840 -475 -454 -1188 -530 -1757 -188 -189
113 -372 296 -485 485 -342 569 -266 1282 188 1757 187 195 401 326 654 398
166 48 221 52 650 54 l401 1 4 -109z"/>
        <path d="M1593 2696 c-293 -56 -534 -231 -672 -488 -68 -126 -96 -215 -110
-356 -41 -390 171 -773 524 -947 234 -115 504 -131 745 -44 301 110 528 366
607 685 24 99 24 313 0 418 -85 360 -357 634 -717 721 -91 22 -288 28 -377 11z
m295 -302 c254 -51 457 -256 508 -514 58 -294 -94 -589 -369 -714 -97 -45
-165 -59 -272 -59 -183 0 -323 60 -456 192 -132 132 -191 272 -192 456 0 107
14 175 59 272 127 279 420 428 722 367z"/>
    </g>
</svg>
