<svg version="1.0" xmlns="http://www.w3.org/2000/svg"
     width="512.000000pt" height="512.000000pt" viewBox="0 0 512.000000 512.000000"
     preserveAspectRatio="xMidYMid meet">

    <g transform="translate(0.000000,512.000000) scale(0.100000,-0.100000)"
       fill="#000000" stroke="none">
        <path d="M2865 4745 c-91 -49 -105 -85 -105 -270 0 -143 0 -146 26 -172 20
-20 31 -24 57 -19 57 12 62 23 67 179 l5 142 119 3 c78 2 123 -1 132 -9 11 -9
14 -57 14 -243 0 -257 7 -305 63 -410 41 -79 154 -192 233 -234 157 -82 361
-82 518 0 81 43 195 156 233 233 60 119 66 149 72 415 l6 245 119 3 c76 2 123
-1 130 -8 7 -7 13 -134 16 -378 l5 -367 27 -57 c52 -111 165 -199 276 -213
102 -13 92 6 92 -179 l0 -163 -616 -296 -616 -296 -501 240 c-276 133 -555
266 -619 297 l-118 55 0 157 c0 114 3 160 13 168 6 5 35 12 62 14 81 7 168 53
229 119 73 78 97 144 104 276 4 99 4 102 -21 127 -33 33 -76 34 -104 4 -17
-19 -22 -40 -25 -118 -5 -104 -23 -153 -75 -202 -33 -32 -92 -58 -128 -58 -93
0 -174 -56 -194 -135 -8 -30 -11 -295 -11 -848 l0 -803 -189 -113 -189 -112
-61 21 c-55 18 -85 20 -316 20 l-255 0 0 649 0 650 273 3 272 3 55 28 c76 39
143 108 176 181 24 51 28 75 29 146 0 76 -3 92 -32 151 -63 127 -171 197 -318
206 l-83 6 -4 78 c-6 102 -43 178 -112 230 -55 42 -106 59 -193 67 l-63 5 0
92 c0 79 -3 97 -22 125 -49 71 -61 75 -243 75 -182 0 -194 -4 -243 -75 -19
-28 -22 -46 -22 -125 l0 -92 -77 -7 c-179 -15 -281 -119 -291 -293 l-5 -83
-61 0 c-113 0 -166 -29 -166 -91 0 -14 9 -34 19 -43 18 -16 72 -18 800 -16
541 0 794 -3 822 -10 56 -15 121 -82 138 -142 28 -98 -17 -199 -109 -245 l-44
-23 -758 0 c-829 0 -798 -2 -862 58 -43 41 -66 98 -66 170 0 48 -4 66 -20 82
-25 25 -71 26 -101 1 -22 -18 -24 -27 -24 -103 0 -108 33 -184 111 -258 96
-91 108 -94 422 -98 l272 -3 0 -649 0 -649 -273 -3 c-271 -3 -272 -3 -329 -30
-71 -33 -138 -101 -175 -176 -23 -49 -27 -70 -28 -147 0 -77 4 -98 26 -146 66
-140 194 -218 357 -219 l52 0 0 -65 c0 -119 55 -217 152 -270 42 -23 70 -30
133 -35 l80 -5 5 -102 c6 -113 18 -141 81 -178 30 -18 52 -20 184 -20 132 0
154 2 184 20 63 37 76 65 79 176 l4 99 60 -55 c33 -31 86 -69 119 -85 124 -63
49 -61 1606 -58 l1418 3 53 30 c59 32 91 66 125 129 21 39 22 55 25 302 l3
261 65 6 c35 4 84 15 109 26 62 28 130 94 162 160 l28 56 3 1070 c2 962 1
1074 -13 1112 -27 70 -96 113 -181 113 -64 0 -136 44 -176 108 -23 37 -23 41
-28 412 l-5 375 -25 44 c-17 30 -40 52 -69 68 -40 21 -57 23 -187 23 -153 0
-183 -6 -227 -48 -51 -48 -52 -53 -58 -327 -5 -236 -7 -265 -27 -315 -46 -117
-149 -215 -261 -250 -200 -63 -404 27 -499 220 -27 55 -27 57 -32 320 -6 301
-10 320 -83 368 -39 26 -47 27 -196 30 -128 2 -161 0 -186 -13z m-1675 -510
l0 -75 -115 0 -115 0 0 75 0 75 115 0 115 0 0 -75z m297 -249 c46 -28 73 -83
73 -150 l0 -56 -485 0 -485 0 0 56 c0 89 35 141 109 165 14 4 190 7 391 6 340
-2 367 -3 397 -21z m1624 -1201 c327 -157 603 -288 615 -291 14 -4 218 89 627
285 334 160 609 291 612 291 3 0 5 -356 5 -790 0 -844 1 -829 -48 -884 -25
-28 -91 -56 -134 -56 l-37 0 -3 363 c-3 351 -4 363 -25 403 -35 66 -70 101
-130 130 -48 24 -69 28 -137 28 -133 -1 -177 -32 -245 -177 -72 -152 -188
-241 -348 -269 -196 -33 -397 76 -486 264 -76 159 -120 183 -332 183 -165 -1
-153 3 -374 -130 -88 -52 -162 -95 -165 -95 -3 0 -6 232 -6 515 0 283 4 515 9
515 4 0 275 -128 602 -285z m-1921 -375 l0 -650 -115 0 -115 0 0 650 0 650
115 0 115 0 0 -650z m1979 -301 c26 -9 39 -26 76 -99 102 -203 290 -330 512
-346 145 -11 324 49 436 147 60 52 131 151 161 226 28 69 53 86 114 79 60 -8
97 -30 116 -70 14 -30 16 -91 16 -520 l0 -486 -518 0 -518 0 -129 186 c-71
103 -139 191 -152 197 -55 25 -118 -35 -97 -90 6 -15 50 -84 97 -152 48 -68
87 -128 87 -132 0 -5 -38 -9 -84 -9 l-84 0 -225 324 c-125 178 -227 329 -229
336 -3 11 95 80 113 80 3 0 43 -54 89 -120 84 -120 102 -136 150 -128 32 4 64
50 57 80 -4 12 -42 75 -87 138 -44 62 -80 119 -80 126 0 6 6 17 14 23 23 20
46 100 46 163 l0 58 44 0 c23 0 57 -5 75 -11z m-284 -114 c-12 -24 -108 -86
-431 -280 -229 -137 -428 -251 -443 -253 -33 -5 -94 24 -88 41 2 7 222 143
488 303 l484 290 3 -35 c2 -20 -3 -49 -13 -66z m-71 -660 c108 -154 196 -283
196 -287 0 -5 -37 -8 -83 -8 l-83 0 -178 256 c-127 183 -175 259 -167 267 21
21 106 66 113 59 4 -4 95 -133 202 -287z m-1039 266 c-6 -4 -83 -51 -171 -104
-126 -75 -175 -111 -222 -161 -65 -70 -112 -156 -132 -245 -12 -53 -9 -200 6
-248 l6 -23 -290 0 -290 0 -32 26 c-44 37 -60 75 -60 139 l0 55 215 0 c227 0
255 5 274 47 15 34 14 47 -8 74 l-19 24 -374 5 -373 5 -45 25 c-122 69 -146
234 -47 327 69 66 18 62 832 63 409 0 735 -4 730 -9z m729 -335 c80 -115 146
-213 146 -218 0 -4 -38 -8 -84 -8 l-84 0 -127 181 c-69 99 -125 182 -123 184
8 8 122 74 124 72 1 -1 68 -96 148 -211z m-621 73 c49 -25 130 -35 179 -21
l36 10 96 -138 c53 -76 96 -141 96 -144 0 -3 -200 -6 -445 -6 l-445 0 0 23 c0
37 55 138 97 179 21 20 94 71 161 112 l124 75 31 -35 c16 -19 48 -44 70 -55z
m2715 -549 l-3 -100 -38 -37 -37 -38 -1428 0 -1427 0 -57 27 c-90 42 -175 137
-202 226 l-7 22 1601 0 1602 0 -4 -100z m-3408 -200 l0 -80 -115 0 -115 0 0
80 0 80 115 0 115 0 0 -80z"/>
        <path d="M3573 3428 c-57 -28 -48 -114 15 -133 l32 -9 0 -128 c0 -109 -2 -128
-15 -128 -25 0 -65 -47 -65 -75 0 -14 11 -37 25 -50 23 -24 31 -25 135 -25
104 0 112 1 135 25 14 13 25 36 25 50 0 31 -41 75 -70 75 -19 0 -20 5 -20 168
0 183 -4 198 -60 227 -33 17 -105 19 -137 3z"/>
    </g>
</svg>
